Coordinates
version=1
nRows=30
nColumns=21
inDegrees=yes

Units are S.I. units (second, meters, Newtons, ...)
If the header above contains a line with 'inDegrees', this indicates whether rotational values are in degrees (yes) or radians (no).

endheader
time	sternoclavicular_r2	sternoclavicular_r3	unrotscap_r3	unrotscap_r2	acromioclavicular_r2	acromioclavicular_r3	acromioclavicular_r1	unrothum_r1	unrothum_r3	unrothum_r2	elv_angle	shoulder_elev	shoulder1_r2	shoulder_rot	elbow_flexion	pro_sup	deviation	flexion	wrist_hand_r1	wrist_hand_r3
      0.00000000	     -0.00048191	      0.00020412	     -0.00020412	      0.00048191	     -0.00009758	      0.00078859	      0.00035446	     -0.00035446	     -0.00078859	      0.00009758	     60.14277612	      0.00199137	    -60.14277612	    -14.02953329	    125.80075253	      0.00000000	      0.00000000	     -0.00000000	     -0.00000000	      0.00000000
      0.10101010	     -0.00048216	      0.00020422	     -0.00020422	      0.00048216	     -0.00009763	      0.00078900	      0.00035465	     -0.00035465	     -0.00078900	      0.00009763	     59.93520758	      0.00199241	    -59.93520758	    -14.02925667	    125.79970583	      0.00000000	      0.00000000	     -0.00000000	     -0.00000000	      0.00000000
      0.20202020	     -0.00048243	      0.00020433	     -0.00020433	      0.00048243	     -0.00009768	      0.00078943	      0.00035484	     -0.00035484	     -0.00078943	      0.00009768	     59.72346970	      0.00199349	    -59.72346970	    -14.02846391	    125.79929415	      0.00000000	      0.00000000	     -0.00000000	     -0.00000000	      0.00000000
      0.30303030	     -0.00048270	      0.00020445	     -0.00020445	      0.00048270	     -0.00009774	      0.00078988	      0.00035504	     -0.00035504	     -0.00078988	      0.00009774	     59.50802561	      0.00199462	    -59.50802561	    -14.02436651	    125.79812256	      0.00000000	      0.00000000	     -0.00000000	     -0.00000000	      0.00000000
      0.40404040	     -0.00048299	      0.00020457	     -0.00020457	      0.00048299	     -0.00009780	      0.00079036	      0.00035526	     -0.00035526	     -0.00079036	      0.00009780	     59.28944333	      0.00199584	    -59.28944333	    -14.01373970	    125.79521491	      0.00000000	      0.00000000	     -0.00000000	     -0.00000000	      0.00000000
      0.50505051	     -0.00048332	      0.00020471	     -0.00020471	      0.00048332	     -0.00009786	      0.00079089	      0.00035550	     -0.00035550	     -0.00079089	      0.00009786	     59.06822830	      0.00199718	    -59.06822830	    -13.99359389	    125.78969736	      0.00000000	      0.00000000	     -0.00000000	     -0.00000000	      0.00000000
      0.60606061	     -0.00048368	      0.00020486	     -0.00020486	      0.00048368	     -0.00009794	      0.00079148	      0.00035577	     -0.00035577	     -0.00079148	      0.00009794	     58.84480627	      0.00199868	    -58.84480627	    -13.96115067	    125.78075909	      0.00000000	      0.00000000	     -0.00000000	     -0.00000000	      0.00000000
      0.70707071	     -0.00048410	      0.00020504	     -0.00020504	      0.00048410	     -0.00009802	      0.00079216	      0.00035607	     -0.00035607	     -0.00079216	      0.00009802	     58.61949887	      0.00200040	    -58.61949887	    -13.91383672	    125.76764110	      0.00000000	      0.00000000	     -0.00000000	     -0.00000000	      0.00000000
      0.80808081	     -0.00048458	      0.00020524	     -0.00020524	      0.00048458	     -0.00009812	      0.00079295	      0.00035642	     -0.00035642	     -0.00079295	      0.00009812	     58.39249654	      0.00200238	    -58.39249654	    -13.84927927	    125.74962741	      0.00000000	      0.00000000	     -0.00000000	     -0.00000000	      0.00000000
      0.90909091	     -0.00048514	      0.00020548	     -0.00020548	      0.00048514	     -0.00009823	      0.00079386	      0.00035684	     -0.00035684	     -0.00079386	      0.00009823	     58.16383341	      0.00200469	    -58.16383341	    -13.76530346	    125.72603713	      0.00000000	      0.00000000	     -0.00000000	     -0.00000000	      0.00000000
      1.01010101	     -0.00048579	      0.00020576	     -0.00020576	      0.00048579	     -0.00009836	      0.00079492	      0.00035731	     -0.00035731	     -0.00079492	      0.00009836	     57.93336966	      0.00200737	    -57.93336966	    -13.65993320	    125.69621761	      0.00000000	      0.00000000	     -0.00000000	     -0.00000000	      0.00000000
      1.11111111	     -0.00048654	      0.00020608	     -0.00020608	      0.00048654	     -0.00009851	      0.00079616	      0.00035787	     -0.00035787	     -0.00079616	      0.00009851	     57.70078662	      0.00201050	    -57.70078662	    -13.53139696	    125.65953970	      0.00000000	      0.00000000	     -0.00000000	     -0.00000000	      0.00000000
      1.21212121	     -0.00048886	      0.00020706	     -0.00020706	      0.00048886	     -0.00009898	      0.00079995	      0.00035957	     -0.00035957	     -0.00079995	      0.00009898	     57.48631397	      0.00202007	    -57.48631397	    -13.37712215	    125.61363079	      0.00000000	      0.00000000	     -0.00000000	     -0.00000000	      0.00000000
      1.31313131	     -0.00048995	      0.00020752	     -0.00020752	      0.00048995	     -0.00009921	      0.00080174	      0.00036038	     -0.00036038	     -0.00080174	      0.00009921	     57.25974857	      0.00202459	    -57.25974857	    -13.19732384	    125.55976142	      0.00000000	      0.00000000	     -0.00000000	     -0.00000000	      0.00000000
      1.41414141	     -0.00049121	      0.00020806	     -0.00020806	      0.00049121	     -0.00009946	      0.00080381	      0.00036131	     -0.00036131	     -0.00080381	      0.00009946	     57.01954765	      0.00202981	    -57.01954765	    -12.99052882	    125.49733001	      0.00000000	      0.00000000	     -0.00000000	     -0.00000000	      0.00000000
      1.51515152	     -0.00049266	      0.00020867	     -0.00020867	      0.00049266	     -0.00009975	      0.00080618	      0.00036237	     -0.00036237	     -0.00080618	      0.00009975	     56.76418920	      0.00203580	    -56.76418920	    -12.75588662	    125.42586782	      0.00000000	      0.00000000	     -0.00000000	     -0.00000000	      0.00000000
      1.61616162	     -0.00049432	      0.00020937	     -0.00020937	      0.00049432	     -0.00010009	      0.00080890	      0.00036359	     -0.00036359	     -0.00080890	      0.00010009	     56.49212384	      0.00204266	    -56.49212384	    -12.49276599	    125.34494076	      0.00000000	      0.00000000	     -0.00000000	     -0.00000000	      0.00000000
      1.71717172	     -0.00049622	      0.00021018	     -0.00021018	      0.00049622	     -0.00010047	      0.00081200	      0.00036499	     -0.00036499	     -0.00081200	      0.00010047	     56.20181193	      0.00205049	    -56.20181193	    -12.20075416	    125.25414919	      0.00000000	      0.00000000	     -0.00000000	     -0.00000000	      0.00000000
      1.81818182	     -0.00049838	      0.00021109	     -0.00021109	      0.00049838	     -0.00010091	      0.00081553	      0.00036657	     -0.00036657	     -0.00081553	      0.00010091	     55.89175635	      0.00205940	    -55.89175635	    -11.87965462	    125.15312845	      0.00000000	      0.00000000	     -0.00000000	     -0.00000000	      0.00000000
      1.91919192	     -0.00050082	      0.00021213	     -0.00021213	      0.00050082	     -0.00010141	      0.00081953	      0.00036837	     -0.00036837	     -0.00081953	      0.00010141	     55.56054393	      0.00206951	    -55.56054393	    -11.52948197	    125.04154862	      0.00000000	      0.00000000	     -0.00000000	     -0.00000000	      0.00000000
      2.02020202	     -0.00050359	      0.00021330	     -0.00021330	      0.00050359	     -0.00010197	      0.00082406	      0.00037041	     -0.00037041	     -0.00082406	      0.00010197	     55.20689388	      0.00208095	    -55.20689388	    -11.15045553	    124.91911502	      0.00000000	      0.00000000	     -0.00000000	     -0.00000000	      0.00000000
      2.12121212	     -0.00050672	      0.00021462	     -0.00021462	      0.00050672	     -0.00010260	      0.00082917	      0.00037271	     -0.00037271	     -0.00082917	      0.00010260	     54.82967708	      0.00209386	    -54.82967708	    -10.74299371	    124.78557101	      0.00000000	      0.00000000	     -0.00000000	     -0.00000000	      0.00000000
      2.22222222	     -0.00051023	      0.00021611	     -0.00021611	      0.00051023	     -0.00010331	      0.00083493	      0.00037530	     -0.00037530	     -0.00083493	      0.00010331	     54.42793647	      0.00210840	    -54.42793647	    -10.30770532	    124.64070019	      0.00000000	      0.00000000	     -0.00000000	     -0.00000000	      0.00000000
      2.32323232	     -0.00051419	      0.00021779	     -0.00021779	      0.00051419	     -0.00010411	      0.00084140	      0.00037820	     -0.00037820	     -0.00084140	      0.00010411	     54.00089940	      0.00212474	    -54.00089940	     -9.84538054	    124.48432973	      0.00000000	      0.00000000	     -0.00000000	     -0.00000000	      0.00000000
      2.42424242	     -0.00051862	      0.00021966	     -0.00021966	      0.00051862	     -0.00010501	      0.00084865	      0.00038146	     -0.00038146	     -0.00084865	      0.00010501	     53.54798150	      0.00214305	    -53.54798150	     -9.35698082	    124.31633390	      0.00000000	      0.00000000	     -0.00000000	     -0.00000000	      0.00000000
      2.52525253	     -0.00052358	      0.00022176	     -0.00022176	      0.00052358	     -0.00010601	      0.00085676	      0.00038511	     -0.00038511	     -0.00085676	      0.00010601	     53.06878169	      0.00216353	    -53.06878169	     -8.84362698	    124.13663734	      0.00000000	      0.00000000	     -0.00000000	     -0.00000000	      0.00000000
      2.62626263	     -0.00052911	      0.00022411	     -0.00022411	      0.00052911	     -0.00010713	      0.00086583	      0.00038918	     -0.00038918	     -0.00086583	      0.00010713	     52.56306826	      0.00218642	    -52.56306826	     -8.30658525	    123.94521768	      0.00000000	      0.00000000	     -0.00000000	     -0.00000000	      0.00000000
      2.72727273	     -0.00053529	      0.00022672	     -0.00022672	      0.00053529	     -0.00010838	      0.00087593	      0.00039372	     -0.00039372	     -0.00087593	      0.00010838	     52.03075670	      0.00221192	    -52.03075670	     -7.74725161	    123.74210704	      0.00000000	      0.00000000	     -0.00000000	     -0.00000000	      0.00000000
      2.82828283	     -0.00054216	      0.00022963	     -0.00022963	      0.00054216	     -0.00010978	      0.00088717	      0.00039878	     -0.00039878	     -0.00088717	      0.00010978	     51.47207648	      0.00224031	    -51.47207648	     -7.16713739	    123.52739311	      0.00000000	      0.00000000	     -0.00000000	     -0.00000000	      0.00000000
      2.92929293	     -0.00054979	      0.00023287	     -0.00023287	      0.00054979	     -0.00011132	      0.00089966	      0.00040439	     -0.00040439	     -0.00089966	      0.00011132	     50.88720736	      0.00227185	    -50.88720736	     -6.56785098	    123.30121980	      0.00000000	      0.00000000	     -0.00000000	     -0.00000000	      0.00000000
